<svg width="360" height="800" viewBox="0 0 360 800" fill="none" xmlns="http://www.w3.org/2000/svg">
<rect width="360" height="800" fill="#F5F5F5"/>
<rect width="360" height="800" fill="url(#paint0_linear_0_1)"/>
<path d="M90.7197 431V359H120.462C125.853 359 130.505 360.055 134.419 362.164C138.356 364.25 141.392 367.168 143.524 370.918C145.657 374.645 146.724 378.98 146.724 383.926C146.724 388.895 145.634 393.242 143.454 396.969C141.298 400.672 138.216 403.543 134.208 405.582C130.2 407.621 125.442 408.641 119.935 408.641H101.583V394.93H116.7C119.325 394.93 121.517 394.473 123.274 393.559C125.056 392.645 126.403 391.367 127.317 389.727C128.231 388.062 128.688 386.129 128.688 383.926C128.688 381.699 128.231 379.777 127.317 378.16C126.403 376.52 125.056 375.254 123.274 374.363C121.493 373.473 119.302 373.027 116.7 373.027H108.122V431H90.7197ZM168.591 431.914C165.146 431.914 162.087 431.34 159.415 430.191C156.767 429.02 154.669 427.262 153.122 424.918C151.599 422.551 150.837 419.586 150.837 416.023C150.837 413.023 151.364 410.492 152.419 408.43C153.474 406.367 154.927 404.691 156.778 403.402C158.63 402.113 160.763 401.141 163.177 400.484C165.591 399.805 168.169 399.348 170.911 399.113C173.981 398.832 176.454 398.539 178.329 398.234C180.204 397.906 181.563 397.449 182.407 396.863C183.274 396.254 183.708 395.398 183.708 394.297V394.121C183.708 392.316 183.087 390.922 181.845 389.937C180.603 388.953 178.927 388.461 176.817 388.461C174.544 388.461 172.716 388.953 171.333 389.937C169.95 390.922 169.071 392.281 168.696 394.016L152.841 393.453C153.31 390.172 154.517 387.242 156.462 384.664C158.431 382.063 161.126 380.023 164.548 378.547C167.993 377.047 172.13 376.297 176.958 376.297C180.403 376.297 183.579 376.707 186.485 377.527C189.392 378.324 191.923 379.496 194.079 381.043C196.235 382.566 197.899 384.441 199.071 386.668C200.267 388.895 200.864 391.437 200.864 394.297V431H184.692V423.477H184.271C183.31 425.305 182.079 426.852 180.579 428.117C179.103 429.383 177.356 430.332 175.341 430.965C173.349 431.598 171.099 431.914 168.591 431.914ZM173.899 420.664C175.751 420.664 177.415 420.289 178.892 419.539C180.392 418.789 181.587 417.758 182.478 416.445C183.368 415.109 183.813 413.562 183.813 411.805V406.672C183.321 406.93 182.724 407.164 182.021 407.375C181.341 407.586 180.591 407.785 179.771 407.973C178.95 408.16 178.106 408.324 177.239 408.465C176.372 408.605 175.54 408.734 174.743 408.852C173.126 409.109 171.743 409.508 170.595 410.047C169.47 410.586 168.603 411.289 167.993 412.156C167.407 413 167.114 414.008 167.114 415.18C167.114 416.961 167.747 418.32 169.013 419.258C170.302 420.195 171.931 420.664 173.899 420.664ZM211.376 431V377H228.567V431H211.376ZM219.989 370.707C217.575 370.707 215.501 369.91 213.767 368.316C212.032 366.699 211.165 364.754 211.165 362.48C211.165 360.23 212.032 358.309 213.767 356.715C215.501 355.098 217.575 354.289 219.989 354.289C222.427 354.289 224.501 355.098 226.212 356.715C227.946 358.309 228.813 360.23 228.813 362.48C228.813 364.754 227.946 366.699 226.212 368.316C224.501 369.91 222.427 370.707 219.989 370.707ZM239.51 431V377H256.209V386.844H256.771C257.756 383.281 259.361 380.633 261.588 378.898C263.814 377.141 266.404 376.262 269.357 376.262C270.154 376.262 270.975 376.32 271.818 376.437C272.662 376.531 273.447 376.684 274.174 376.895V391.836C273.354 391.555 272.275 391.332 270.939 391.168C269.627 391.004 268.455 390.922 267.424 390.922C265.385 390.922 263.545 391.379 261.904 392.293C260.287 393.184 259.01 394.437 258.072 396.055C257.158 397.648 256.701 399.523 256.701 401.68V431H239.51Z" fill="white"/>
<path d="M119.406 474L121.7 460.182H129.696L129.507 461.315H122.773L121.909 466.517H128.016L127.827 467.651H121.72L120.668 474H119.406ZM130.303 474L132.03 463.636H133.238L131.511 474H130.303ZM133.069 461.835C132.817 461.835 132.604 461.749 132.428 461.578C132.257 461.408 132.174 461.201 132.179 460.958C132.188 460.728 132.28 460.53 132.455 460.364C132.635 460.193 132.847 460.108 133.089 460.108C133.341 460.108 133.555 460.195 133.73 460.371C133.906 460.542 133.989 460.749 133.98 460.991C133.976 461.221 133.883 461.419 133.703 461.585C133.523 461.752 133.312 461.835 133.069 461.835ZM136.961 467.523L135.888 474H134.687L136.414 463.636H137.581L137.311 465.262H137.419C137.743 464.732 138.191 464.307 138.762 463.987C139.338 463.663 140.006 463.501 140.766 463.501C141.459 463.501 142.043 463.648 142.52 463.94C143.002 464.228 143.343 464.653 143.546 465.215C143.753 465.777 143.789 466.468 143.654 467.287L142.527 474H141.326L142.433 467.361C142.572 466.515 142.448 465.845 142.061 465.35C141.679 464.851 141.088 464.601 140.287 464.601C139.743 464.601 139.237 464.718 138.769 464.952C138.306 465.186 137.914 465.523 137.595 465.964C137.275 466.4 137.064 466.92 136.961 467.523ZM149.401 474.216C148.551 474.216 147.842 473.991 147.275 473.541C146.709 473.091 146.313 472.464 146.088 471.659C145.863 470.854 145.838 469.916 146.014 468.845C146.194 467.779 146.529 466.846 147.019 466.045C147.514 465.24 148.119 464.615 148.834 464.169C149.554 463.72 150.339 463.495 151.189 463.495C151.823 463.495 152.329 463.607 152.707 463.832C153.089 464.052 153.379 464.327 153.577 464.655C153.775 464.984 153.917 465.303 154.002 465.613H154.11L155.014 460.182H156.222L153.928 474H152.761L153.085 472.077H152.936C152.743 472.392 152.489 472.716 152.174 473.049C151.863 473.377 151.481 473.654 151.027 473.879C150.572 474.103 150.03 474.216 149.401 474.216ZM149.664 473.116C150.334 473.116 150.939 472.934 151.479 472.57C152.023 472.201 152.477 471.695 152.842 471.051C153.211 470.404 153.462 469.662 153.597 468.825C153.737 467.997 153.735 467.266 153.591 466.632C153.447 465.993 153.168 465.494 152.754 465.134C152.34 464.77 151.794 464.588 151.114 464.588C150.426 464.588 149.814 464.777 149.279 465.154C148.744 465.528 148.301 466.034 147.95 466.673C147.604 467.311 147.363 468.029 147.228 468.825C147.098 469.63 147.098 470.357 147.228 471.004C147.359 471.652 147.624 472.167 148.024 472.549C148.429 472.927 148.976 473.116 149.664 473.116ZM162.888 477.886C162.65 477.886 162.429 477.864 162.227 477.819C162.029 477.774 161.874 477.724 161.761 477.67L162.267 476.611C162.645 476.742 162.992 476.782 163.307 476.733C163.626 476.688 163.93 476.535 164.217 476.274C164.505 476.013 164.789 475.624 165.068 475.107L165.634 474.054L163.583 463.636H164.831L166.451 472.435H166.538L171.079 463.636H172.435L166.059 475.626C165.785 476.143 165.481 476.568 165.149 476.901C164.82 477.234 164.465 477.482 164.082 477.643C163.705 477.805 163.307 477.886 162.888 477.886ZM176.762 474.216C175.853 474.216 175.089 473.987 174.468 473.528C173.847 473.064 173.409 472.423 173.152 471.605C172.896 470.786 172.853 469.842 173.024 468.771C173.195 467.727 173.535 466.81 174.043 466.018C174.556 465.222 175.185 464.603 175.932 464.163C176.679 463.717 177.491 463.495 178.368 463.495C179.281 463.495 180.046 463.726 180.662 464.19C181.283 464.653 181.721 465.294 181.978 466.113C182.239 466.931 182.283 467.878 182.113 468.953C181.942 469.992 181.6 470.908 181.087 471.699C180.574 472.486 179.944 473.103 179.198 473.548C178.456 473.993 177.644 474.216 176.762 474.216ZM176.776 473.116C177.513 473.116 178.17 472.92 178.746 472.529C179.326 472.133 179.805 471.607 180.183 470.95C180.561 470.289 180.815 469.563 180.945 468.771C181.067 468.015 181.053 467.32 180.905 466.686C180.756 466.052 180.471 465.544 180.048 465.161C179.625 464.779 179.063 464.588 178.361 464.588C177.628 464.588 176.971 464.788 176.391 465.188C175.811 465.584 175.332 466.115 174.954 466.781C174.576 467.442 174.324 468.166 174.198 468.953C174.072 469.713 174.081 470.408 174.225 471.038C174.374 471.668 174.659 472.172 175.082 472.549C175.509 472.927 176.074 473.116 176.776 473.116ZM191.152 470.039L192.225 463.636H193.426L191.699 474H190.498L190.781 472.279H190.693C190.369 472.81 189.911 473.253 189.317 473.609C188.728 473.96 188.053 474.135 187.293 474.135C186.631 474.135 186.067 473.991 185.599 473.703C185.136 473.411 184.805 472.983 184.607 472.421C184.409 471.859 184.378 471.168 184.513 470.35L185.64 463.636H186.841L185.734 470.276C185.604 471.085 185.734 471.737 186.125 472.232C186.521 472.723 187.093 472.968 187.839 472.968C188.307 472.968 188.775 472.855 189.243 472.63C189.715 472.405 190.124 472.077 190.471 471.645C190.821 471.209 191.049 470.674 191.152 470.039ZM194.878 474L196.605 463.636H197.773L197.503 465.229H197.591C197.878 464.707 198.308 464.286 198.879 463.967C199.455 463.643 200.069 463.481 200.721 463.481C200.82 463.481 200.93 463.483 201.052 463.488C201.173 463.488 201.275 463.492 201.355 463.501L201.146 464.723C201.092 464.714 200.998 464.7 200.863 464.682C200.732 464.664 200.586 464.655 200.424 464.655C199.885 464.655 199.385 464.77 198.926 464.999C198.472 465.224 198.09 465.537 197.779 465.937C197.474 466.337 197.276 466.794 197.186 467.307L196.079 474H194.878ZM210.508 460.182L208.214 474H207.013L209.307 460.182H210.508ZM215.467 474.216C214.559 474.216 213.794 473.987 213.173 473.528C212.552 473.064 212.114 472.423 211.857 471.605C211.601 470.786 211.558 469.842 211.729 468.771C211.9 467.727 212.24 466.81 212.748 466.018C213.261 465.222 213.891 464.603 214.637 464.163C215.384 463.717 216.196 463.495 217.073 463.495C217.986 463.495 218.751 463.726 219.367 464.19C219.988 464.653 220.426 465.294 220.683 466.113C220.944 466.931 220.989 467.878 220.818 468.953C220.647 469.992 220.305 470.908 219.792 471.699C219.279 472.486 218.65 473.103 217.903 473.548C217.161 473.993 216.349 474.216 215.467 474.216ZM215.481 473.116C216.218 473.116 216.875 472.92 217.451 472.529C218.031 472.133 218.51 471.607 218.888 470.95C219.266 470.289 219.52 469.563 219.65 468.771C219.772 468.015 219.758 467.32 219.61 466.686C219.461 466.052 219.176 465.544 218.753 465.161C218.33 464.779 217.768 464.588 217.066 464.588C216.333 464.588 215.676 464.788 215.096 465.188C214.516 465.584 214.037 466.115 213.659 466.781C213.281 467.442 213.029 468.166 212.903 468.953C212.777 469.713 212.786 470.408 212.93 471.038C213.079 471.668 213.364 472.172 213.787 472.549C214.214 472.927 214.779 473.116 215.481 473.116ZM231.996 463.636L226.484 474H225.202L223.144 463.636H224.392L226.011 472.414H226.099L230.64 463.636H231.996ZM236.41 474.216C235.443 474.216 234.645 473.991 234.015 473.541C233.385 473.087 232.945 472.459 232.693 471.659C232.441 470.854 232.403 469.927 232.578 468.879C232.753 467.835 233.1 466.909 233.617 466.099C234.134 465.285 234.773 464.648 235.533 464.19C236.293 463.726 237.119 463.495 238.009 463.495C238.572 463.495 239.098 463.598 239.588 463.805C240.079 464.007 240.495 464.32 240.836 464.743C241.183 465.161 241.423 465.69 241.558 466.328C241.693 466.963 241.689 467.714 241.545 468.582L241.45 469.176H233.354L233.523 468.116H240.398C240.51 467.451 240.479 466.853 240.303 466.322C240.128 465.791 239.829 465.37 239.406 465.06C238.988 464.745 238.468 464.588 237.847 464.588C237.213 464.588 236.613 464.765 236.046 465.121C235.484 465.476 235.007 465.939 234.616 466.511C234.229 467.077 233.979 467.682 233.867 468.326L233.732 469.122C233.588 469.999 233.606 470.734 233.786 471.328C233.966 471.917 234.292 472.363 234.764 472.664C235.236 472.965 235.841 473.116 236.579 473.116C237.074 473.116 237.521 473.04 237.922 472.887C238.322 472.734 238.671 472.529 238.968 472.273C239.264 472.012 239.503 471.726 239.683 471.416L240.756 471.787C240.526 472.223 240.202 472.626 239.784 472.995C239.37 473.364 238.878 473.66 238.306 473.885C237.74 474.106 237.108 474.216 236.41 474.216Z" fill="white"/>
<path d="M278.663 444.992C276.24 441.792 272.898 438.657 267.635 438.465C262.455 438.273 258.278 441.664 257.276 445.376C256.023 450.175 259.281 454.783 262.205 458.815C263.876 461.182 265.797 463.422 267.802 465.662C269.891 467.966 271.896 470.461 270.893 473.341C270.726 473.917 271.729 474.237 272.146 473.789C274.653 470.845 272.731 467.518 270.81 464.702C268.053 460.734 264.795 457.023 262.623 452.863C260.868 449.472 259.615 444.8 264.21 442.304C269.64 439.297 274.235 444.928 276.324 448C276.908 448.896 278.496 448.96 279.415 448.32C281.67 446.72 286.265 444.928 288.604 447.36C290.777 449.6 288.771 452.415 286.683 454.143C284.678 455.743 282.339 456.895 280.167 458.239C277.493 459.902 275.154 461.758 273.316 463.998C271.729 465.918 275.739 467.71 277.326 465.79C281.921 460.35 292.949 457.471 293.533 450.303C293.784 447.488 292.03 444.608 288.437 443.584C285.012 442.56 281.503 443.456 278.663 444.992ZM302.389 445.376C304.227 444.032 305.146 441.984 306.566 440.385C308.07 438.657 309.824 437.121 311.746 435.649C315.422 432.833 319.933 430.786 320.852 426.562C321.52 423.49 319.933 419.779 315.923 418.499C311.913 417.283 309.323 419.203 306.733 421.187C305.229 419.267 303.141 417.539 300.217 417.091C296.29 416.515 292.698 418.755 291.528 421.507C290.108 424.77 291.863 428.226 293.45 431.233C295.455 435.137 297.293 439.425 300.05 443.072C300.133 443.136 300.133 443.2 300.217 443.264C300.05 443.712 299.883 444.16 299.799 444.608C299.632 445.632 301.554 446.016 302.389 445.376ZM295.204 426.69C294.452 424.322 294.369 420.291 298.546 419.843C301.637 419.523 303.475 422.338 304.728 424.13C305.313 424.962 306.733 425.026 307.569 424.386C309.908 422.786 313.25 418.883 316.341 422.21C319.265 425.41 316.007 428.994 312.915 431.106C309.991 433.025 307.318 434.945 304.979 437.313C303.976 438.273 302.89 439.361 301.971 440.513C300.133 435.841 296.792 431.425 295.204 426.69Z" fill="white"/>
<defs>
<linearGradient id="paint0_linear_0_1" x1="0" y1="0" x2="360" y2="800" gradientUnits="userSpaceOnUse">
<stop stop-color="#970D1A"/>
<stop offset="1" stop-color="#4E204D"/>
</linearGradient>
</defs>
</svg>
